<svg xmlns="http://www.w3.org/2000/svg" xmlns:xlink="http://www.w3.org/1999/xlink" width="500" zoomAndPan="magnify" viewBox="0 0 375 374.999991" height="500" preserveAspectRatio="xMidYMid meet" version="1.0"><defs><g/><clipPath id="db2bc51218"><path d="M 187.5 0 C 83.945312 0 0 83.945312 0 187.5 C 0 291.054688 83.945312 375 187.5 375 C 291.054688 375 375 291.054688 375 187.5 C 375 83.945312 291.054688 0 187.5 0 Z M 187.5 0 " clip-rule="nonzero"/></clipPath></defs><g clip-path="url(#db2bc51218)"><rect x="-37.5" width="450" fill="#ffffff" y="-37.499999" height="449.999989" fill-opacity="1"/></g><g fill="#000000" fill-opacity="1"><g transform="translate(146.658742, 312.596244)"><g><path d="M 210.703125 -92.796875 C 210.703125 -62.484375 202.550781 -38.820312 186.25 -21.8125 C 169.945312 -4.800781 146.90625 3.703125 117.125 3.703125 C 97.03125 3.703125 78.914062 -0.523438 62.78125 -8.984375 C 46.65625 -17.441406 34.140625 -28.984375 25.234375 -43.609375 C 16.335938 -58.242188 11.890625 -74.59375 11.890625 -92.65625 C 11.890625 -110.726562 16.296875 -127.078125 25.109375 -141.703125 C 33.921875 -156.328125 46.082031 -167.828125 61.59375 -176.203125 C 77.101562 -184.578125 94.378906 -188.765625 113.421875 -188.765625 C 125.398438 -188.765625 137.601562 -187.132812 150.03125 -183.875 C 162.457031 -180.613281 172.8125 -176.25 181.09375 -170.78125 L 186.390625 -133.515625 L 184 -133.515625 C 180.300781 -148.316406 171.753906 -159.898438 158.359375 -168.265625 C 144.960938 -176.640625 130.070312 -180.828125 113.6875 -180.828125 C 90.238281 -180.828125 70.710938 -172.5 55.109375 -155.84375 C 39.515625 -139.1875 31.71875 -118.253906 31.71875 -93.046875 C 31.71875 -67.847656 39.78125 -46.742188 55.90625 -29.734375 C 72.039062 -12.734375 93.148438 -4.234375 119.234375 -4.234375 C 145.316406 -4.234375 166.597656 -12.691406 183.078125 -29.609375 C 199.554688 -46.523438 207.796875 -69.703125 207.796875 -99.140625 L 210.4375 -99.140625 C 210.613281 -97.023438 210.703125 -94.910156 210.703125 -92.796875 Z M 210.703125 -92.796875 "/></g></g></g><g fill="#000000" fill-opacity="1"><g transform="translate(55.482617, 257.876167)"><g><path d="M -15.328125 -132.453125 C -20.796875 -138.972656 -23.53125 -145.445312 -23.53125 -151.875 C -23.53125 -158.3125 -22.03125 -163.863281 -19.03125 -168.53125 C -16.039062 -173.207031 -11.195312 -177.175781 -4.5 -180.4375 C 2.195312 -183.695312 9.78125 -185.328125 18.25 -185.328125 L 126.640625 -185.328125 C 132.097656 -185.328125 138.128906 -185.851562 144.734375 -186.90625 C 151.347656 -187.96875 155.976562 -189.023438 158.625 -190.078125 L 158.625 -156.78125 L 155.984375 -157.03125 L 155.984375 -161.53125 C 155.984375 -165.757812 154.484375 -169.414062 151.484375 -172.5 C 148.492188 -175.582031 144.96875 -177.210938 140.90625 -177.390625 L 90.6875 -177.390625 L 90.6875 -19.03125 C 90.863281 -12.6875 93.679688 -7.929688 99.140625 -4.765625 C 101.785156 -3.347656 104.609375 -2.640625 107.609375 -2.640625 L 111.03125 -2.640625 L 111.03125 0 L 53.140625 0 L 53.140625 -2.640625 L 56.578125 -2.640625 C 61.160156 -2.640625 65.082031 -4.222656 68.34375 -7.390625 C 71.601562 -10.566406 73.320312 -14.359375 73.5 -18.765625 L 73.5 -177.390625 L 18.25 -177.390625 C 4.144531 -177.390625 -6.078125 -172.894531 -12.421875 -163.90625 C -15.773438 -159.320312 -17.453125 -154.519531 -17.453125 -149.5 C -17.453125 -144.476562 -16.039062 -139.238281 -13.21875 -133.78125 Z M -15.328125 -132.453125 "/></g></g></g></svg>