<svg xmlns="http://www.w3.org/2000/svg" xmlns:xlink="http://www.w3.org/1999/xlink" width="500" zoomAndPan="magnify" viewBox="0 0 375 374.999991" height="500" preserveAspectRatio="xMidYMid meet" version="1.0"><defs><g/></defs><g fill="#000000" fill-opacity="1"><g transform="translate(158.637358, 271.005949)"><g><path d="M 126.5625 -55.734375 C 126.5625 -37.523438 121.664062 -23.3125 111.875 -13.09375 C 102.082031 -2.882812 88.238281 2.21875 70.34375 2.21875 C 58.28125 2.21875 47.40625 -0.316406 37.71875 -5.390625 C 28.03125 -10.472656 20.507812 -17.40625 15.15625 -26.1875 C 9.8125 -34.976562 7.140625 -44.800781 7.140625 -55.65625 C 7.140625 -66.507812 9.785156 -76.328125 15.078125 -85.109375 C 20.378906 -93.898438 27.6875 -100.804688 37 -105.828125 C 46.3125 -110.859375 56.6875 -113.375 68.125 -113.375 C 75.320312 -113.375 82.648438 -112.394531 90.109375 -110.4375 C 97.578125 -108.476562 103.800781 -105.859375 108.78125 -102.578125 L 111.953125 -80.1875 L 110.515625 -80.1875 C 108.296875 -89.082031 103.160156 -96.039062 95.109375 -101.0625 C 87.066406 -106.09375 78.125 -108.609375 68.28125 -108.609375 C 54.195312 -108.609375 42.472656 -103.609375 33.109375 -93.609375 C 23.742188 -83.609375 19.0625 -71.035156 19.0625 -55.890625 C 19.0625 -40.753906 23.898438 -28.078125 33.578125 -17.859375 C 43.265625 -7.648438 55.941406 -2.546875 71.609375 -2.546875 C 87.285156 -2.546875 100.070312 -7.625 109.96875 -17.78125 C 119.863281 -27.945312 124.8125 -41.867188 124.8125 -59.546875 L 126.40625 -59.546875 C 126.507812 -58.273438 126.5625 -57.003906 126.5625 -55.734375 Z M 126.5625 -55.734375 "/></g></g></g><g fill="#000000" fill-opacity="1"><g transform="translate(104.593153, 235.499985)"><g><path d="M -9.21875 -79.5625 C -12.5 -83.476562 -14.140625 -87.367188 -14.140625 -91.234375 C -14.140625 -95.097656 -13.238281 -98.429688 -11.4375 -101.234375 C -9.632812 -104.035156 -6.722656 -106.414062 -2.703125 -108.375 C 1.316406 -110.332031 5.867188 -111.3125 10.953125 -111.3125 L 76.0625 -111.3125 C 79.34375 -111.3125 82.96875 -111.628906 86.9375 -112.265625 C 90.90625 -112.898438 93.6875 -113.535156 95.28125 -114.171875 L 95.28125 -94.171875 L 93.6875 -94.328125 L 93.6875 -97.03125 C 93.6875 -99.570312 92.785156 -101.765625 90.984375 -103.609375 C 89.179688 -105.460938 87.066406 -106.441406 84.640625 -106.546875 L 54.46875 -106.546875 L 54.46875 -11.4375 C 54.570312 -7.625 56.265625 -4.765625 59.546875 -2.859375 C 61.128906 -2.015625 62.820312 -1.59375 64.625 -1.59375 L 66.6875 -1.59375 L 66.6875 0 L 31.921875 0 L 31.921875 -1.59375 L 33.984375 -1.59375 C 36.734375 -1.59375 39.085938 -2.539062 41.046875 -4.4375 C 43.003906 -6.34375 44.035156 -8.625 44.140625 -11.28125 L 44.140625 -106.546875 L 10.953125 -106.546875 C 2.484375 -106.546875 -3.65625 -103.847656 -7.46875 -98.453125 C -9.476562 -95.703125 -10.484375 -92.816406 -10.484375 -89.796875 C -10.484375 -86.785156 -9.632812 -83.632812 -7.9375 -80.34375 Z M -9.21875 -79.5625 "/></g></g></g><path fill="#ffffff" d="M 68.0625 179.496094 L 292.242188 179.496094 C 293.304688 179.496094 294.320312 179.917969 295.070312 180.667969 C 295.820312 181.417969 296.242188 182.4375 296.242188 183.5 L 296.242188 191.5 C 296.242188 192.5625 295.820312 193.582031 295.070312 194.332031 C 294.320312 195.082031 293.304688 195.503906 292.242188 195.503906 L 68.0625 195.503906 C 65.855469 195.503906 64.0625 193.710938 64.0625 191.5 L 64.0625 183.5 C 64.0625 181.289062 65.855469 179.496094 68.0625 179.496094 Z M 68.0625 179.496094 " fill-opacity="1" fill-rule="nonzero"/><g fill="#000000" fill-opacity="1"><g transform="translate(71.880571, 190.499987)"><g><path d="M 5.890625 -7.109375 L 5.734375 -5.96875 L 3.53125 -5.96875 L 3.53125 0 L 2.21875 0 L 2.21875 -5.96875 L -0.0625 -5.96875 L -0.0625 -7.109375 Z M 5.890625 -7.109375 "/></g></g></g><g fill="#000000" fill-opacity="1"><g transform="translate(85.247619, 190.499987)"><g><path d="M 0.734375 0 L 0.734375 -7.109375 L 2.03125 -7.109375 L 2.03125 -4.171875 L 5.40625 -4.171875 L 5.40625 -7.109375 L 6.703125 -7.109375 L 6.703125 0 L 5.40625 0 L 5.40625 -3.03125 L 2.03125 -3.03125 L 2.03125 0 Z M 0.734375 0 "/></g></g></g><g fill="#000000" fill-opacity="1"><g transform="translate(100.295986, 190.499987)"><g><path d="M 3.890625 0.09375 C 3.171875 0.09375 2.550781 -0.0390625 2.03125 -0.3125 C 1.519531 -0.59375 1.128906 -0.992188 0.859375 -1.515625 C 0.585938 -2.046875 0.453125 -2.679688 0.453125 -3.421875 C 0.453125 -4.160156 0.597656 -4.816406 0.890625 -5.390625 C 1.179688 -5.960938 1.59375 -6.410156 2.125 -6.734375 C 2.664062 -7.054688 3.304688 -7.21875 4.046875 -7.21875 C 4.703125 -7.21875 5.273438 -7.066406 5.765625 -6.765625 C 6.265625 -6.472656 6.648438 -6.0625 6.921875 -5.53125 C 7.191406 -5.007812 7.328125 -4.398438 7.328125 -3.703125 C 7.328125 -2.929688 7.175781 -2.257812 6.875 -1.6875 C 6.582031 -1.125 6.175781 -0.6875 5.65625 -0.375 C 5.144531 -0.0625 4.554688 0.09375 3.890625 0.09375 Z M 3.859375 -1.078125 C 4.273438 -1.078125 4.644531 -1.179688 4.96875 -1.390625 C 5.289062 -1.597656 5.546875 -1.894531 5.734375 -2.28125 C 5.921875 -2.664062 6.015625 -3.140625 6.015625 -3.703125 C 6.015625 -4.410156 5.832031 -4.976562 5.46875 -5.40625 C 5.101562 -5.832031 4.617188 -6.046875 4.015625 -6.046875 C 3.578125 -6.046875 3.191406 -5.9375 2.859375 -5.71875 C 2.523438 -5.5 2.257812 -5.195312 2.0625 -4.8125 C 1.863281 -4.425781 1.765625 -3.972656 1.765625 -3.453125 C 1.765625 -2.691406 1.953125 -2.101562 2.328125 -1.6875 C 2.703125 -1.28125 3.210938 -1.078125 3.859375 -1.078125 Z M 3.859375 -1.078125 "/></g></g></g><g fill="#000000" fill-opacity="1"><g transform="translate(115.694634, 190.499987)"><g><path d="M 0.6875 0 L 0.96875 -7.109375 L 2.09375 -7.109375 L 4.703125 -1.625 L 7.296875 -7.109375 L 8.421875 -7.109375 L 8.640625 0 L 7.390625 0 L 7.25 -4.421875 L 5.140625 0 L 4.15625 0 L 2.078125 -4.390625 L 1.890625 0 Z M 0.6875 0 "/></g></g></g><g fill="#000000" fill-opacity="1"><g transform="translate(132.66451, 190.499987)"><g><path d="M -0.09375 0 L 2.9375 -7.109375 L 4.03125 -7.109375 L 6.953125 0 L 5.625 0 L 4.984375 -1.625 L 1.890625 -1.625 L 1.21875 0 Z M 2.328125 -2.71875 L 4.5625 -2.71875 L 3.46875 -5.515625 Z M 2.328125 -2.71875 "/></g></g></g><g fill="#000000" fill-opacity="1"><g transform="translate(147.172453, 190.499987)"><g><path d="M 2.9375 0.09375 C 2.101562 0.09375 1.453125 -0.09375 0.984375 -0.46875 C 0.523438 -0.84375 0.257812 -1.390625 0.1875 -2.109375 L 1.40625 -2.296875 C 1.53125 -1.441406 2.0625 -1.015625 3 -1.015625 C 3.40625 -1.015625 3.722656 -1.09375 3.953125 -1.25 C 4.179688 -1.414062 4.296875 -1.644531 4.296875 -1.9375 C 4.296875 -2.207031 4.179688 -2.410156 3.953125 -2.546875 C 3.722656 -2.679688 3.359375 -2.8125 2.859375 -2.9375 C 2.390625 -3.050781 1.988281 -3.1875 1.65625 -3.34375 C 1.320312 -3.5 1.066406 -3.707031 0.890625 -3.96875 C 0.710938 -4.238281 0.625 -4.59375 0.625 -5.03125 C 0.625 -5.457031 0.734375 -5.832031 0.953125 -6.15625 C 1.171875 -6.488281 1.46875 -6.75 1.84375 -6.9375 C 2.226562 -7.125 2.671875 -7.21875 3.171875 -7.21875 C 3.835938 -7.21875 4.378906 -7.039062 4.796875 -6.6875 C 5.210938 -6.34375 5.457031 -5.867188 5.53125 -5.265625 L 4.390625 -5.0625 C 4.253906 -5.757812 3.828125 -6.109375 3.109375 -6.109375 C 2.765625 -6.109375 2.484375 -6.015625 2.265625 -5.828125 C 2.046875 -5.648438 1.9375 -5.414062 1.9375 -5.125 C 1.9375 -4.832031 2.039062 -4.609375 2.25 -4.453125 C 2.46875 -4.296875 2.835938 -4.15625 3.359375 -4.03125 C 3.816406 -3.925781 4.210938 -3.800781 4.546875 -3.65625 C 4.878906 -3.519531 5.132812 -3.320312 5.3125 -3.0625 C 5.5 -2.8125 5.59375 -2.460938 5.59375 -2.015625 C 5.59375 -1.609375 5.476562 -1.242188 5.25 -0.921875 C 5.03125 -0.609375 4.722656 -0.359375 4.328125 -0.171875 C 3.929688 0.00390625 3.46875 0.09375 2.9375 0.09375 Z M 2.9375 0.09375 "/></g></g></g><g fill="#000000" fill-opacity="1"><g transform="translate(160.659595, 190.499987)"><g/></g></g><g fill="#000000" fill-opacity="1"><g transform="translate(170.714053, 190.499987)"><g><path d="M 6.765625 -1.375 C 6.484375 -0.90625 6.09375 -0.539062 5.59375 -0.28125 C 5.101562 -0.03125 4.550781 0.09375 3.9375 0.09375 C 3.207031 0.09375 2.582031 -0.046875 2.0625 -0.328125 C 1.539062 -0.609375 1.140625 -1.007812 0.859375 -1.53125 C 0.585938 -2.0625 0.453125 -2.691406 0.453125 -3.421875 C 0.453125 -4.171875 0.601562 -4.828125 0.90625 -5.390625 C 1.21875 -5.960938 1.644531 -6.410156 2.1875 -6.734375 C 2.738281 -7.054688 3.375 -7.21875 4.09375 -7.21875 C 4.707031 -7.21875 5.234375 -7.097656 5.671875 -6.859375 C 6.109375 -6.628906 6.472656 -6.273438 6.765625 -5.796875 L 5.765625 -5.078125 C 5.585938 -5.410156 5.351562 -5.65625 5.0625 -5.8125 C 4.769531 -5.96875 4.445312 -6.046875 4.09375 -6.046875 C 3.632812 -6.046875 3.226562 -5.929688 2.875 -5.703125 C 2.53125 -5.484375 2.257812 -5.175781 2.0625 -4.78125 C 1.863281 -4.394531 1.765625 -3.945312 1.765625 -3.4375 C 1.765625 -2.695312 1.957031 -2.117188 2.34375 -1.703125 C 2.726562 -1.285156 3.265625 -1.078125 3.953125 -1.078125 C 4.335938 -1.078125 4.6875 -1.164062 5 -1.34375 C 5.320312 -1.519531 5.585938 -1.785156 5.796875 -2.140625 Z M 6.765625 -1.375 "/></g></g></g><g fill="#000000" fill-opacity="1"><g transform="translate(185.021845, 190.499987)"><g><path d="M -0.09375 0 L 2.9375 -7.109375 L 4.03125 -7.109375 L 6.953125 0 L 5.625 0 L 4.984375 -1.625 L 1.890625 -1.625 L 1.21875 0 Z M 2.328125 -2.71875 L 4.5625 -2.71875 L 3.46875 -5.515625 Z M 2.328125 -2.71875 "/></g></g></g><g fill="#000000" fill-opacity="1"><g transform="translate(199.529793, 190.499987)"><g><path d="M 0.734375 0 L 0.734375 -7.109375 L 2.03125 -7.109375 L 2.03125 -1.140625 L 5.203125 -1.140625 L 5.109375 0 Z M 0.734375 0 "/></g></g></g><g fill="#000000" fill-opacity="1"><g transform="translate(212.296364, 190.499987)"><g><path d="M 0.6875 0 L 0.96875 -7.109375 L 2.09375 -7.109375 L 4.703125 -1.625 L 7.296875 -7.109375 L 8.421875 -7.109375 L 8.640625 0 L 7.390625 0 L 7.25 -4.421875 L 5.140625 0 L 4.15625 0 L 2.078125 -4.390625 L 1.890625 0 Z M 0.6875 0 "/></g></g></g><g fill="#000000" fill-opacity="1"><g transform="translate(229.266234, 190.499987)"><g><path d="M 5.3125 -5.984375 L 2 -5.984375 L 2 -4.15625 L 5.140625 -4.15625 L 5.140625 -3.03125 L 2 -3.03125 L 2 -1.125 L 5.421875 -1.125 L 5.34375 0 L 0.734375 0 L 0.734375 -7.109375 L 5.3125 -7.109375 Z M 5.3125 -5.984375 "/></g></g></g><g fill="#000000" fill-opacity="1"><g transform="translate(242.543211, 190.499987)"><g><path d="M 5.890625 -7.109375 L 5.734375 -5.96875 L 3.53125 -5.96875 L 3.53125 0 L 2.21875 0 L 2.21875 -5.96875 L -0.0625 -5.96875 L -0.0625 -7.109375 Z M 5.890625 -7.109375 "/></g></g></g><g fill="#000000" fill-opacity="1"><g transform="translate(255.910252, 190.499987)"><g><path d="M 5.890625 -7.109375 L 5.734375 -5.96875 L 3.53125 -5.96875 L 3.53125 0 L 2.21875 0 L 2.21875 -5.96875 L -0.0625 -5.96875 L -0.0625 -7.109375 Z M 5.890625 -7.109375 "/></g></g></g><g fill="#000000" fill-opacity="1"><g transform="translate(269.277294, 190.499987)"><g><path d="M 5.3125 -5.984375 L 2 -5.984375 L 2 -4.15625 L 5.140625 -4.15625 L 5.140625 -3.03125 L 2 -3.03125 L 2 -1.125 L 5.421875 -1.125 L 5.34375 0 L 0.734375 0 L 0.734375 -7.109375 L 5.3125 -7.109375 Z M 5.3125 -5.984375 "/></g></g></g><g fill="#000000" fill-opacity="1"><g transform="translate(282.55427, 190.499987)"><g><path d="M 2.9375 0.09375 C 2.101562 0.09375 1.453125 -0.09375 0.984375 -0.46875 C 0.523438 -0.84375 0.257812 -1.390625 0.1875 -2.109375 L 1.40625 -2.296875 C 1.53125 -1.441406 2.0625 -1.015625 3 -1.015625 C 3.40625 -1.015625 3.722656 -1.09375 3.953125 -1.25 C 4.179688 -1.414062 4.296875 -1.644531 4.296875 -1.9375 C 4.296875 -2.207031 4.179688 -2.410156 3.953125 -2.546875 C 3.722656 -2.679688 3.359375 -2.8125 2.859375 -2.9375 C 2.390625 -3.050781 1.988281 -3.1875 1.65625 -3.34375 C 1.320312 -3.5 1.066406 -3.707031 0.890625 -3.96875 C 0.710938 -4.238281 0.625 -4.59375 0.625 -5.03125 C 0.625 -5.457031 0.734375 -5.832031 0.953125 -6.15625 C 1.171875 -6.488281 1.46875 -6.75 1.84375 -6.9375 C 2.226562 -7.125 2.671875 -7.21875 3.171875 -7.21875 C 3.835938 -7.21875 4.378906 -7.039062 4.796875 -6.6875 C 5.210938 -6.34375 5.457031 -5.867188 5.53125 -5.265625 L 4.390625 -5.0625 C 4.253906 -5.757812 3.828125 -6.109375 3.109375 -6.109375 C 2.765625 -6.109375 2.484375 -6.015625 2.265625 -5.828125 C 2.046875 -5.648438 1.9375 -5.414062 1.9375 -5.125 C 1.9375 -4.832031 2.039062 -4.609375 2.25 -4.453125 C 2.46875 -4.296875 2.835938 -4.15625 3.359375 -4.03125 C 3.816406 -3.925781 4.210938 -3.800781 4.546875 -3.65625 C 4.878906 -3.519531 5.132812 -3.320312 5.3125 -3.0625 C 5.5 -2.8125 5.59375 -2.460938 5.59375 -2.015625 C 5.59375 -1.609375 5.476562 -1.242188 5.25 -0.921875 C 5.03125 -0.609375 4.722656 -0.359375 4.328125 -0.171875 C 3.929688 0.00390625 3.46875 0.09375 2.9375 0.09375 Z M 2.9375 0.09375 "/></g></g></g></svg>